<!-- Generated by IcoMoon.io -->
<svg version="1.1" xmlns="http://www.w3.org/2000/svg" width="32" height="32" viewBox="0 0 32 32">
<path fill="#a68f4b" d="M30.827 2.639c0.751 0.751 1.173 1.77 1.173 2.833s-0.422 2.081-1.173 2.833l-3.527 3.529-7.134-7.131 3.529-3.529c0.752-0.751 1.771-1.173 2.834-1.173s2.082 0.422 2.834 1.173l1.464 1.466zM2.809 22.064l15.941-15.947 7.134 7.13-15.95 15.943c-0.422 0.42-0.942 0.728-1.514 0.895l-6.506 1.858c-0.262 0.076-0.54 0.076-0.801-0.002s-0.495-0.229-0.673-0.436c-0.192-0.176-0.329-0.404-0.397-0.655s-0.063-0.517 0.015-0.766l1.86-6.507c0.162-0.573 0.469-1.094 0.891-1.514zM15.605 6.434l-9.135 9.135-5.47-5.475c-0.279-0.279-0.5-0.609-0.651-0.974s-0.229-0.755-0.229-1.149c0-0.394 0.078-0.785 0.229-1.149s0.372-0.695 0.651-0.974l4.885-4.886c0.279-0.279 0.609-0.5 0.974-0.651s0.755-0.229 1.149-0.229c0.394 0 0.785 0.078 1.149 0.229s0.695 0.372 0.974 0.651l1.239 1.236c-0.019 0.018-0.044 0.038-0.063 0.058l-4.006 4.005c-0.096 0.092-0.172 0.203-0.224 0.325s-0.080 0.253-0.081 0.386c-0.001 0.133 0.024 0.264 0.074 0.387s0.125 0.235 0.218 0.328c0.094 0.094 0.205 0.168 0.328 0.218s0.255 0.076 0.387 0.074c0.133-0.001 0.264-0.029 0.386-0.081s0.232-0.129 0.325-0.224l4.006-4.003c0.019-0.020-0.013-0.042 0.057-0.063l2.828 2.822zM28.387 19.223c-0.022 0.017-0.043 0.036-0.063 0.056l-4.005 4.004c-0.182 0.189-0.283 0.441-0.281 0.703s0.107 0.513 0.293 0.698 0.436 0.291 0.698 0.293c0.262 0.002 0.515-0.099 0.703-0.281l4.005-4.005c0.019-0.075-0.013-0.044 0.057-0.063l1.239 1.239c0.562 0.563 0.878 1.326 0.878 2.121s-0.316 1.558-0.878 2.121l-4.887 4.887c-0.563 0.562-1.325 0.878-2.121 0.878s-1.558-0.316-2.121-0.878l-5.475-5.468 9.135-9.135 2.822 2.828z"></path>
</svg>
