<!-- Generated by IcoMoon.io -->
<svg version="1.1" xmlns="http://www.w3.org/2000/svg" width="28" height="32" viewBox="0 0 28 32">
<path fill="#a68f4b" d="M14.118 20c1.96-0.003 3.851-0.717 5.319-2.006s2.409-3.065 2.648-4.994h-15.933c0.239 1.929 1.181 3.705 2.648 4.994s3.358 2.002 5.319 2.006zM5.546 11h17.143c0.133-0.001 0.261-0.054 0.356-0.147s0.148-0.22 0.149-0.353v-2c-0.001-0.132-0.054-0.259-0.149-0.353s-0.222-0.147-0.356-0.147h-0.504c0.001-1.376-0.408-2.722-1.174-3.869s-1.857-2.045-3.135-2.581l-1.742 3.45v-4c0-0.131-0.025-0.262-0.076-0.383s-0.125-0.232-0.219-0.325c-0.094-0.093-0.205-0.167-0.328-0.217s-0.254-0.076-0.386-0.075h-2.017c-0.133-0-0.264 0.025-0.386 0.075s-0.234 0.124-0.328 0.217c-0.094 0.093-0.168 0.203-0.219 0.325s-0.076 0.252-0.076 0.383v4l-1.74-3.454c-1.278 0.537-2.368 1.436-3.135 2.583s-1.176 2.494-1.176 3.87h-0.504c-0.133 0.001-0.261 0.054-0.355 0.147s-0.148 0.22-0.149 0.353v1.944c-0.005 0.070 0.004 0.14 0.026 0.206s0.059 0.127 0.106 0.179c0.047 0.052 0.104 0.094 0.168 0.123s0.133 0.046 0.204 0.048zM19.836 22h-11.434c-2.228 0.001-4.365 0.879-5.941 2.441s-2.461 3.682-2.461 5.892c0 0.442 0.177 0.866 0.492 1.179s0.743 0.488 1.188 0.488h24.875c0.446 0 0.873-0.176 1.189-0.488s0.492-0.737 0.492-1.179c0-1.094-0.216-2.178-0.638-3.189s-1.041-1.93-1.821-2.704-1.706-1.388-2.726-1.806c-1.019-0.419-2.112-0.634-3.215-0.634z"></path>
</svg>
