<!-- Generated by IcoMoon.io -->
<svg version="1.1" xmlns="http://www.w3.org/2000/svg" width="32" height="32" viewBox="0 0 32 32">
<path fill="#a68f4b" d="M0 2c0-0.53 0.211-1.039 0.586-1.414s0.884-0.586 1.414-0.586h8c0.53 0 1.039 0.211 1.414 0.586s0.586 0.884 0.586 1.414v24c0 1.591-0.632 3.117-1.757 4.243s-2.651 1.757-4.243 1.757c-1.591 0-3.117-0.632-4.243-1.757s-1.757-2.651-1.757-4.243v-24zM8 4h-4v4h4v-4zM4 16h4v-4h-4v4zM6 27.5c0.297 0 0.587-0.088 0.833-0.253s0.439-0.399 0.552-0.673c0.114-0.274 0.143-0.576 0.085-0.867s-0.201-0.558-0.411-0.768-0.477-0.353-0.768-0.411c-0.291-0.058-0.593-0.028-0.867 0.085s-0.508 0.306-0.673 0.552-0.253 0.537-0.253 0.833c-0 0.197 0.038 0.392 0.113 0.575s0.186 0.348 0.325 0.487 0.305 0.25 0.487 0.325c0.182 0.075 0.377 0.114 0.575 0.113zM14 26v-16.375l4.713-4.71c0.376-0.375 0.885-0.586 1.416-0.586s1.040 0.211 1.416 0.586l5.656 5.654c0.375 0.376 0.586 0.885 0.586 1.416s-0.211 1.040-0.586 1.415l-13.225 13.219c0.018-0.2 0.025-0.412 0.025-0.619zM23.425 20h6.575c0.53 0 1.039 0.211 1.414 0.586s0.586 0.884 0.586 1.414v8c0 0.53-0.211 1.039-0.586 1.414s-0.884 0.586-1.414 0.586h-18.575l12-12z"></path>
</svg>
