<!-- Generated by IcoMoon.io -->
<svg version="1.1" xmlns="http://www.w3.org/2000/svg" width="24" height="32" viewBox="0 0 24 32">
<path fill="#a68f4b" d="M15.043 14h6.976c0.402-0.006 0.795 0.116 1.122 0.349s0.572 0.564 0.698 0.945c0.164 0.374 0.204 0.79 0.114 1.189s-0.305 0.757-0.615 1.024l-16.013 14c-0.341 0.3-0.775 0.474-1.228 0.495s-0.901-0.113-1.269-0.38c-0.368-0.267-0.633-0.651-0.754-1.089s-0.088-0.904 0.092-1.321l4.81-11.213h-7.030c-0.403-0.011-0.793-0.143-1.119-0.379s-0.574-0.565-0.71-0.943c-0.136-0.379-0.155-0.79-0.054-1.179s0.318-0.74 0.621-1.004l16.013-14c0.341-0.299 0.774-0.473 1.228-0.494s0.901 0.113 1.268 0.38c0.367 0.267 0.633 0.65 0.753 1.087s0.089 0.903-0.091 1.319l-4.812 11.213z"></path>
</svg>
