<!-- Generated by IcoMoon.io -->
<svg version="1.1" xmlns="http://www.w3.org/2000/svg" width="32" height="32" viewBox="0 0 32 32">
<path fill="none" stroke="#e63946" stroke-linejoin="round" stroke-linecap="round" stroke-miterlimit="4" stroke-width="3.7647" d="M27.227 6.107c-0.669-0.671-1.464-1.204-2.339-1.567s-1.813-0.55-2.761-0.55-1.886 0.187-2.761 0.55c-0.875 0.363-1.67 0.896-2.339 1.567l-1.027 1.040-1.027-1.040c-0.669-0.671-1.464-1.204-2.339-1.567s-1.813-0.55-2.761-0.55c-0.948 0-1.886 0.187-2.761 0.55s-1.67 0.896-2.339 1.567c-2.827 2.827-3 7.6 0.56 11.227l10.667 10.667 10.667-10.667c3.56-3.627 3.387-8.4 0.56-11.227z"></path>
</svg>
