<!-- Generated by IcoMoon.io -->
<svg version="1.1" xmlns="http://www.w3.org/2000/svg" width="124" height="32" viewBox="0 0 124 32">
<path fill="#fff" d="M29.633 28.571h-5.506l-0.753 3.429h-6.161l5.905-22.857h7.614l5.905 22.857h-6.29l-0.715-3.429zM28.665 24.169l-1.752-8.226-1.827 8.226h3.579z"></path>
<path fill="#fff" d="M54.286 9.143v22.857h-5.362l-5.118-12v12h-5.727v-22.857h5.368l5.118 12.211v-12.211h5.722z"></path>
<path fill="#fff" d="M71.005 13.594h-4.438v18.406h-6.25v-18.406h-4.418v-4.451h15.105v4.451z"></path>
<path fill="#fff" d="M83.603 28.571h-5.512l-0.752 3.429h-6.156l5.906-22.857h7.623l5.905 22.857h-6.299l-0.715-3.429zM82.638 24.157l-1.755-8.214-1.824 8.226 3.579-0.011z"></path>
<path fill="#fff" d="M101.213 16.974v-2.954c0-0.534-0.287-0.783-0.896-0.783h-1.287c-0.609 0-0.896 0.249-0.896 0.783v13.103c0 0.534 0.287 0.783 0.896 0.783h1.287c0.609 0 0.896-0.249 0.896-0.783v-3.809h-1.789v-3.954h8.042v8.226c0 2.669-1.436 4.414-5.259 4.414h-5.084c-3.829 0-5.262-1.746-5.262-4.414v-14.029c0-2.669 1.436-4.414 5.262-4.414h5.084c3.828 0 5.259 1.746 5.259 4.414v3.429l-6.253-0.011z"></path>
<path fill="#fff" d="M124.082 27.549v4.451h-14.103v-22.857h13.787v4.451h-7.523v4.663h6.477v4.451h-6.477v4.84h7.839z"></path>
<path fill="#fff" d="M12.063 0l-4.406 24.417-1.338-7.846h-6.319l4.041 15.429h7.267l6.5-26.286h106.274l-112.018-5.714z"></path>
</svg>
