<!-- Generated by IcoMoon.io -->
<svg version="1.1" xmlns="http://www.w3.org/2000/svg" width="32" height="32" viewBox="0 0 32 32">
<path fill="#a68f4b" d="M22 6c0.002 0.868-0.186 1.725-0.55 2.513l3.3 5.7c-1.499 1.603-3.41 2.762-5.525 3.35l-3.225-5.563h-0.056l-4.2 7.344c1.377 0.435 2.812 0.657 4.256 0.656 2.105 0.005 4.184-0.471 6.078-1.39s3.554-2.259 4.853-3.916c0.342-0.404 0.829-0.658 1.356-0.706s1.052 0.113 1.462 0.448c0.41 0.336 0.671 0.819 0.727 1.345s-0.097 1.054-0.426 1.469c-1.688 2.104-3.827 3.802-6.258 4.971s-5.094 1.776-7.792 1.779c-2.149 0.002-4.28-0.381-6.293-1.131l-3.541 6.113c-0.294 0.508-0.73 0.918-1.255 1.181l-3.463 1.731c-0.152 0.076-0.322 0.112-0.492 0.105s-0.336-0.059-0.481-0.148c-0.145-0.090-0.265-0.215-0.348-0.364s-0.127-0.316-0.127-0.487v-3.462c0.001-0.529 0.14-1.048 0.404-1.506l3.75-6.475c-0.8-0.704-1.537-1.475-2.204-2.306-0.332-0.415-0.488-0.944-0.432-1.472s0.317-1.014 0.728-1.351 0.939-0.498 1.468-0.448c0.529 0.050 1.017 0.306 1.358 0.714 0.338 0.472 0.719 0.911 1.139 1.313l4.34-7.494c-0.375-0.815-0.563-1.703-0.549-2.6s0.228-1.779 0.627-2.582 0.974-1.506 1.681-2.058c0.707-0.552 1.529-0.938 2.405-1.13s1.784-0.186 2.657 0.019c0.873 0.205 1.689 0.603 2.388 1.165s1.263 1.273 1.651 2.082c0.388 0.809 0.589 1.694 0.59 2.591zM16 8c0.396 0 0.782-0.117 1.111-0.337s0.585-0.532 0.737-0.898c0.151-0.365 0.191-0.768 0.114-1.156s-0.268-0.744-0.547-1.024c-0.28-0.28-0.636-0.47-1.024-0.547s-0.79-0.038-1.156 0.114-0.678 0.408-0.898 0.737c-0.22 0.329-0.337 0.716-0.337 1.111 0 0.53 0.211 1.039 0.586 1.414s0.884 0.586 1.414 0.586zM23.257 24.619c2.041-0.779 3.936-1.897 5.606-3.306l2.732 4.719c0.266 0.457 0.406 0.977 0.406 1.506v3.462c0 0.171-0.043 0.339-0.127 0.488s-0.203 0.275-0.349 0.364c-0.145 0.090-0.311 0.141-0.482 0.148s-0.34-0.029-0.493-0.106l-3.462-1.732c-0.524-0.265-0.96-0.675-1.256-1.181l-2.575-4.362z"></path>
</svg>
