<svg aria-hidden="true" style="position: absolute; width: 0; height: 0; overflow: hidden;" version="1.1" xmlns="http://www.w3.org/2000/svg" xmlns:xlink="http://www.w3.org/1999/xlink">
<defs>
<symbol id="icon-arc" viewBox="0 0 32 32">
<path fill="#a68f4b" style="fill: var(--color1, #a68f4b)" d="M30.827 2.639c0.751 0.751 1.173 1.77 1.173 2.833s-0.422 2.081-1.173 2.833l-3.527 3.529-7.134-7.131 3.529-3.529c0.752-0.751 1.771-1.173 2.834-1.173s2.082 0.422 2.834 1.173l1.464 1.466zM2.809 22.064l15.941-15.947 7.134 7.13-15.95 15.943c-0.422 0.42-0.942 0.728-1.514 0.895l-6.506 1.858c-0.262 0.076-0.54 0.076-0.801-0.002s-0.495-0.229-0.673-0.436c-0.192-0.176-0.329-0.404-0.397-0.655s-0.063-0.517 0.015-0.766l1.86-6.507c0.162-0.573 0.469-1.094 0.891-1.514zM15.605 6.434l-9.135 9.135-5.47-5.475c-0.279-0.279-0.5-0.609-0.651-0.974s-0.229-0.755-0.229-1.149c0-0.394 0.078-0.785 0.229-1.149s0.372-0.695 0.651-0.974l4.885-4.886c0.279-0.279 0.609-0.5 0.974-0.651s0.755-0.229 1.149-0.229c0.394 0 0.785 0.078 1.149 0.229s0.695 0.372 0.974 0.651l1.239 1.236c-0.019 0.018-0.044 0.038-0.063 0.058l-4.006 4.005c-0.096 0.092-0.172 0.203-0.224 0.325s-0.080 0.253-0.081 0.386c-0.001 0.133 0.024 0.264 0.074 0.387s0.125 0.235 0.218 0.328c0.094 0.094 0.205 0.168 0.328 0.218s0.255 0.076 0.387 0.074c0.133-0.001 0.264-0.029 0.386-0.081s0.232-0.129 0.325-0.224l4.006-4.003c0.019-0.020-0.013-0.042 0.057-0.063l2.828 2.822zM28.387 19.223c-0.022 0.017-0.043 0.036-0.063 0.056l-4.005 4.004c-0.182 0.189-0.283 0.441-0.281 0.703s0.107 0.513 0.293 0.698 0.436 0.291 0.698 0.293c0.262 0.002 0.515-0.099 0.703-0.281l4.005-4.005c0.019-0.075-0.013-0.044 0.057-0.063l1.239 1.239c0.562 0.563 0.878 1.326 0.878 2.121s-0.316 1.558-0.878 2.121l-4.887 4.887c-0.563 0.562-1.325 0.878-2.121 0.878s-1.558-0.316-2.121-0.878l-5.475-5.468 9.135-9.135 2.822 2.828z"></path>
</symbol>
<symbol id="icon-construction" viewBox="0 0 28 32">
<path fill="#a68f4b" style="fill: var(--color1, #a68f4b)" d="M14.118 20c1.96-0.003 3.851-0.717 5.319-2.006s2.409-3.065 2.648-4.994h-15.933c0.239 1.929 1.181 3.705 2.648 4.994s3.358 2.002 5.319 2.006zM5.546 11h17.143c0.133-0.001 0.261-0.054 0.356-0.147s0.148-0.22 0.149-0.353v-2c-0.001-0.132-0.054-0.259-0.149-0.353s-0.222-0.147-0.356-0.147h-0.504c0.001-1.376-0.408-2.722-1.174-3.869s-1.857-2.045-3.135-2.581l-1.742 3.45v-4c0-0.131-0.025-0.262-0.076-0.383s-0.125-0.232-0.219-0.325c-0.094-0.093-0.205-0.167-0.328-0.217s-0.254-0.076-0.386-0.075h-2.017c-0.133-0-0.264 0.025-0.386 0.075s-0.234 0.124-0.328 0.217c-0.094 0.093-0.168 0.203-0.219 0.325s-0.076 0.252-0.076 0.383v4l-1.74-3.454c-1.278 0.537-2.368 1.436-3.135 2.583s-1.176 2.494-1.176 3.87h-0.504c-0.133 0.001-0.261 0.054-0.355 0.147s-0.148 0.22-0.149 0.353v1.944c-0.005 0.070 0.004 0.14 0.026 0.206s0.059 0.127 0.106 0.179c0.047 0.052 0.104 0.094 0.168 0.123s0.133 0.046 0.204 0.048zM19.836 22h-11.434c-2.228 0.001-4.365 0.879-5.941 2.441s-2.461 3.682-2.461 5.892c0 0.442 0.177 0.866 0.492 1.179s0.743 0.488 1.188 0.488h24.875c0.446 0 0.873-0.176 1.189-0.488s0.492-0.737 0.492-1.179c0-1.094-0.216-2.178-0.638-3.189s-1.041-1.93-1.821-2.704-1.706-1.388-2.726-1.806c-1.019-0.419-2.112-0.634-3.215-0.634z"></path>
</symbol>
<symbol id="icon-design" viewBox="0 0 32 32">
<path fill="#a68f4b" style="fill: var(--color1, #a68f4b)" d="M0 2c0-0.53 0.211-1.039 0.586-1.414s0.884-0.586 1.414-0.586h8c0.53 0 1.039 0.211 1.414 0.586s0.586 0.884 0.586 1.414v24c0 1.591-0.632 3.117-1.757 4.243s-2.651 1.757-4.243 1.757c-1.591 0-3.117-0.632-4.243-1.757s-1.757-2.651-1.757-4.243v-24zM8 4h-4v4h4v-4zM4 16h4v-4h-4v4zM6 27.5c0.297 0 0.587-0.088 0.833-0.253s0.439-0.399 0.552-0.673c0.114-0.274 0.143-0.576 0.085-0.867s-0.201-0.558-0.411-0.768-0.477-0.353-0.768-0.411c-0.291-0.058-0.593-0.028-0.867 0.085s-0.508 0.306-0.673 0.552-0.253 0.537-0.253 0.833c-0 0.197 0.038 0.392 0.113 0.575s0.186 0.348 0.325 0.487 0.305 0.25 0.487 0.325c0.182 0.075 0.377 0.114 0.575 0.113zM14 26v-16.375l4.713-4.71c0.376-0.375 0.885-0.586 1.416-0.586s1.040 0.211 1.416 0.586l5.656 5.654c0.375 0.376 0.586 0.885 0.586 1.416s-0.211 1.040-0.586 1.415l-13.225 13.219c0.018-0.2 0.025-0.412 0.025-0.619zM23.425 20h6.575c0.53 0 1.039 0.211 1.414 0.586s0.586 0.884 0.586 1.414v8c0 0.53-0.211 1.039-0.586 1.414s-0.884 0.586-1.414 0.586h-18.575l12-12z"></path>
</symbol>
<symbol id="icon-document" viewBox="0 0 24 32">
<path fill="#a68f4b" style="fill: var(--color1, #a68f4b)" d="M20 0h-16c-1.061 0-2.078 0.421-2.828 1.172s-1.172 1.768-1.172 2.828v24c0 1.061 0.421 2.078 1.172 2.828s1.768 1.172 2.828 1.172h16c1.061 0 2.078-0.421 2.828-1.172s1.172-1.768 1.172-2.828v-24c0-1.061-0.421-2.078-1.172-2.828s-1.768-1.172-2.828-1.172zM13 22h-8c-0.265 0-0.52-0.105-0.707-0.293s-0.293-0.442-0.293-0.707c0-0.265 0.105-0.52 0.293-0.707s0.442-0.293 0.707-0.293h8c0.265 0 0.52 0.105 0.707 0.293s0.293 0.442 0.293 0.707c0 0.265-0.105 0.52-0.293 0.707s-0.442 0.293-0.707 0.293zM19 16h-14c-0.265 0-0.52-0.105-0.707-0.293s-0.293-0.442-0.293-0.707c0-0.265 0.105-0.52 0.293-0.707s0.442-0.293 0.707-0.293h14c0.265 0 0.52 0.105 0.707 0.293s0.293 0.442 0.293 0.707c0 0.265-0.105 0.52-0.293 0.707s-0.442 0.293-0.707 0.293zM19 10h-14c-0.265 0-0.52-0.105-0.707-0.293s-0.293-0.442-0.293-0.707c0-0.265 0.105-0.52 0.293-0.707s0.442-0.293 0.707-0.293h14c0.265 0 0.52 0.105 0.707 0.293s0.293 0.442 0.293 0.707c0 0.265-0.105 0.52-0.293 0.707s-0.442 0.293-0.707 0.293z"></path>
</symbol>
<symbol id="icon-energy" viewBox="0 0 24 32">
<path fill="#a68f4b" style="fill: var(--color1, #a68f4b)" d="M15.043 14h6.976c0.402-0.006 0.795 0.116 1.122 0.349s0.572 0.564 0.698 0.945c0.164 0.374 0.204 0.79 0.114 1.189s-0.305 0.757-0.615 1.024l-16.013 14c-0.341 0.3-0.775 0.474-1.228 0.495s-0.901-0.113-1.269-0.38c-0.368-0.267-0.633-0.651-0.754-1.089s-0.088-0.904 0.092-1.321l4.81-11.213h-7.030c-0.403-0.011-0.793-0.143-1.119-0.379s-0.574-0.565-0.71-0.943c-0.136-0.379-0.155-0.79-0.054-1.179s0.318-0.74 0.621-1.004l16.013-14c0.341-0.299 0.774-0.473 1.228-0.494s0.901 0.113 1.268 0.38c0.367 0.267 0.633 0.65 0.753 1.087s0.089 0.903-0.091 1.319l-4.812 11.213z"></path>
</symbol>
<symbol id="icon-heart" viewBox="0 0 32 32">
<path fill="none" stroke="#e63946" style="stroke: var(--color2, #e63946)" stroke-linejoin="round" stroke-linecap="round" stroke-miterlimit="4" stroke-width="3.7647" d="M27.227 6.107c-0.669-0.671-1.464-1.204-2.339-1.567s-1.813-0.55-2.761-0.55-1.886 0.187-2.761 0.55c-0.875 0.363-1.67 0.896-2.339 1.567l-1.027 1.040-1.027-1.040c-0.669-0.671-1.464-1.204-2.339-1.567s-1.813-0.55-2.761-0.55c-0.948 0-1.886 0.187-2.761 0.55s-1.67 0.896-2.339 1.567c-2.827 2.827-3 7.6 0.56 11.227l10.667 10.667 10.667-10.667c3.56-3.627 3.387-8.4 0.56-11.227z"></path>
</symbol>
<symbol id="icon-logo" viewBox="0 0 124 32">
<path fill="#fff" style="fill: var(--color3, #fff)" d="M29.633 28.571h-5.506l-0.753 3.429h-6.161l5.905-22.857h7.614l5.905 22.857h-6.29l-0.715-3.429zM28.665 24.169l-1.752-8.226-1.827 8.226h3.579z"></path>
<path fill="#fff" style="fill: var(--color3, #fff)" d="M54.286 9.143v22.857h-5.362l-5.118-12v12h-5.727v-22.857h5.368l5.118 12.211v-12.211h5.722z"></path>
<path fill="#fff" style="fill: var(--color3, #fff)" d="M71.005 13.594h-4.438v18.406h-6.25v-18.406h-4.418v-4.451h15.105v4.451z"></path>
<path fill="#fff" style="fill: var(--color3, #fff)" d="M83.603 28.571h-5.512l-0.752 3.429h-6.156l5.906-22.857h7.623l5.905 22.857h-6.299l-0.715-3.429zM82.638 24.157l-1.755-8.214-1.824 8.226 3.579-0.011z"></path>
<path fill="#fff" style="fill: var(--color3, #fff)" d="M101.213 16.974v-2.954c0-0.534-0.287-0.783-0.896-0.783h-1.287c-0.609 0-0.896 0.249-0.896 0.783v13.103c0 0.534 0.287 0.783 0.896 0.783h1.287c0.609 0 0.896-0.249 0.896-0.783v-3.809h-1.789v-3.954h8.042v8.226c0 2.669-1.436 4.414-5.259 4.414h-5.084c-3.829 0-5.262-1.746-5.262-4.414v-14.029c0-2.669 1.436-4.414 5.262-4.414h5.084c3.828 0 5.259 1.746 5.259 4.414v3.429l-6.253-0.011z"></path>
<path fill="#fff" style="fill: var(--color3, #fff)" d="M124.082 27.549v4.451h-14.103v-22.857h13.787v4.451h-7.523v4.663h6.477v4.451h-6.477v4.84h7.839z"></path>
<path fill="#fff" style="fill: var(--color3, #fff)" d="M12.063 0l-4.406 24.417-1.338-7.846h-6.319l4.041 15.429h7.267l6.5-26.286h106.274l-112.018-5.714z"></path>
</symbol>
<symbol id="icon-plan" viewBox="0 0 32 32">
<path fill="#a68f4b" style="fill: var(--color1, #a68f4b)" d="M22 6c0.002 0.868-0.186 1.725-0.55 2.513l3.3 5.7c-1.499 1.603-3.41 2.762-5.525 3.35l-3.225-5.563h-0.056l-4.2 7.344c1.377 0.435 2.812 0.657 4.256 0.656 2.105 0.005 4.184-0.471 6.078-1.39s3.554-2.259 4.853-3.916c0.342-0.404 0.829-0.658 1.356-0.706s1.052 0.113 1.462 0.448c0.41 0.336 0.671 0.819 0.727 1.345s-0.097 1.054-0.426 1.469c-1.688 2.104-3.827 3.802-6.258 4.971s-5.094 1.776-7.792 1.779c-2.149 0.002-4.28-0.381-6.293-1.131l-3.541 6.113c-0.294 0.508-0.73 0.918-1.255 1.181l-3.463 1.731c-0.152 0.076-0.322 0.112-0.492 0.105s-0.336-0.059-0.481-0.148c-0.145-0.090-0.265-0.215-0.348-0.364s-0.127-0.316-0.127-0.487v-3.462c0.001-0.529 0.14-1.048 0.404-1.506l3.75-6.475c-0.8-0.704-1.537-1.475-2.204-2.306-0.332-0.415-0.488-0.944-0.432-1.472s0.317-1.014 0.728-1.351 0.939-0.498 1.468-0.448c0.529 0.050 1.017 0.306 1.358 0.714 0.338 0.472 0.719 0.911 1.139 1.313l4.34-7.494c-0.375-0.815-0.563-1.703-0.549-2.6s0.228-1.779 0.627-2.582 0.974-1.506 1.681-2.058c0.707-0.552 1.529-0.938 2.405-1.13s1.784-0.186 2.657 0.019c0.873 0.205 1.689 0.603 2.388 1.165s1.263 1.273 1.651 2.082c0.388 0.809 0.589 1.694 0.59 2.591zM16 8c0.396 0 0.782-0.117 1.111-0.337s0.585-0.532 0.737-0.898c0.151-0.365 0.191-0.768 0.114-1.156s-0.268-0.744-0.547-1.024c-0.28-0.28-0.636-0.47-1.024-0.547s-0.79-0.038-1.156 0.114-0.678 0.408-0.898 0.737c-0.22 0.329-0.337 0.716-0.337 1.111 0 0.53 0.211 1.039 0.586 1.414s0.884 0.586 1.414 0.586zM23.257 24.619c2.041-0.779 3.936-1.897 5.606-3.306l2.732 4.719c0.266 0.457 0.406 0.977 0.406 1.506v3.462c0 0.171-0.043 0.339-0.127 0.488s-0.203 0.275-0.349 0.364c-0.145 0.090-0.311 0.141-0.482 0.148s-0.34-0.029-0.493-0.106l-3.462-1.732c-0.524-0.265-0.96-0.675-1.256-1.181l-2.575-4.362z"></path>
</symbol>
</defs>
</svg>
